<?xml version="1.0" encoding="UTF-8" standalone="no"?><svg xmlns="http://www.w3.org/2000/svg" xmlns:xlink="http://www.w3.org/1999/xlink" contentScriptType="application/ecmascript" contentStyleType="text/css" height="260px" preserveAspectRatio="none" style="width:1148px;height:260px;" version="1.1" viewBox="0 0 1148 260" width="1148px" zoomAndPan="magnify"><defs><filter height="300%" id="f13rjlv5y31nln" width="300%" x="-1" y="-1"><feGaussianBlur result="blurOut" stdDeviation="2.0"/><feColorMatrix in="blurOut" result="blurOut2" type="matrix" values="0 0 0 0 0 0 0 0 0 0 0 0 0 0 0 0 0 0 .4 0"/><feOffset dx="4.0" dy="4.0" in="blurOut2" result="blurOut3"/><feBlend in="SourceGraphic" in2="blurOut3" mode="normal"/></filter></defs><g><ellipse cx="85.3675" cy="29.9623" fill="#FEFECE" filter="url(#f13rjlv5y31nln)" rx="79.3675" ry="19.4623" style="stroke: #A80036; stroke-width: 1.5;"/><text fill="#000000" font-family="sans-serif" font-size="20" lengthAdjust="spacingAndGlyphs" textLength="108" x="31.3675" y="38.103">Containers</text><ellipse cx="532.4558" cy="131.4623" fill="#FEFECE" filter="url(#f13rjlv5y31nln)" rx="28.4558" ry="19.4623" style="stroke: #A80036; stroke-width: 1.5;"/><text fill="#000000" font-family="sans-serif" font-size="20" lengthAdjust="spacingAndGlyphs" textLength="36" x="514.4558" y="139.603">STL</text><ellipse cx="262.397" cy="29.9623" fill="#FEFECE" filter="url(#f13rjlv5y31nln)" rx="62.397" ry="19.4623" style="stroke: #A80036; stroke-width: 1.5;"/><text fill="#000000" font-family="sans-serif" font-size="20" lengthAdjust="spacingAndGlyphs" textLength="84" x="220.397" y="38.103">Iterators</text><ellipse cx="440.5746" cy="29.9623" fill="#FEFECE" filter="url(#f13rjlv5y31nln)" rx="80.0746" ry="19.4623" style="stroke: #A80036; stroke-width: 1.5;"/><text fill="#000000" font-family="sans-serif" font-size="20" lengthAdjust="spacingAndGlyphs" textLength="109" x="386.0746" y="38.103">Algorithms</text><ellipse cx="625.468" cy="29.9623" fill="#FEFECE" filter="url(#f13rjlv5y31nln)" rx="69.468" ry="19.4623" style="stroke: #A80036; stroke-width: 1.5;"/><text fill="#000000" font-family="sans-serif" font-size="20" lengthAdjust="spacingAndGlyphs" textLength="94" x="578.468" y="38.103">Numerics</text><ellipse cx="819.6386" cy="30.2277" fill="#FEFECE" filter="url(#f13rjlv5y31nln)" rx="89.1386" ry="20.2277" style="stroke: #A80036; stroke-width: 1.5;"/><text fill="#000000" font-family="sans-serif" font-size="20" lengthAdjust="spacingAndGlyphs" textLength="127" x="756.1386" y="38.3683">Input/output</text><ellipse cx="1040.6467" cy="29.8293" fill="#FEFECE" filter="url(#f13rjlv5y31nln)" rx="97.1467" ry="21.8293" style="stroke: #A80036; stroke-width: 1.5;"/><text fill="#000000" font-family="sans-serif" font-size="20" lengthAdjust="spacingAndGlyphs" textLength="148" x="966.6467" y="37.97">Smart pointers</text><ellipse cx="190.4117" cy="230.4623" fill="#FEFECE" filter="url(#f13rjlv5y31nln)" rx="53.9117" ry="19.4623" style="stroke: #A80036; stroke-width: 1.5;"/><text fill="#000000" font-family="sans-serif" font-size="20" lengthAdjust="spacingAndGlyphs" textLength="72" x="154.4117" y="238.603">Chrono</text><ellipse cx="327.5477" cy="230.4623" fill="#FEFECE" filter="url(#f13rjlv5y31nln)" rx="47.5477" ry="19.4623" style="stroke: #A80036; stroke-width: 1.5;"/><text fill="#000000" font-family="sans-serif" font-size="20" lengthAdjust="spacingAndGlyphs" textLength="63" x="296.0477" y="238.603">Regex</text><ellipse cx="462.4975" cy="230.4623" fill="#FEFECE" filter="url(#f13rjlv5y31nln)" rx="52.4975" ry="19.4623" style="stroke: #A80036; stroke-width: 1.5;"/><text fill="#000000" font-family="sans-serif" font-size="20" lengthAdjust="spacingAndGlyphs" textLength="70" x="427.4975" y="238.603">Atomic</text><ellipse cx="602.4975" cy="230.4623" fill="#FEFECE" filter="url(#f13rjlv5y31nln)" rx="52.4975" ry="19.4623" style="stroke: #A80036; stroke-width: 1.5;"/><text fill="#000000" font-family="sans-serif" font-size="20" lengthAdjust="spacingAndGlyphs" textLength="70" x="567.4975" y="238.603">Thread</text><ellipse cx="768.6604" cy="230.4623" fill="#FEFECE" filter="url(#f13rjlv5y31nln)" rx="78.6604" ry="19.4623" style="stroke: #A80036; stroke-width: 1.5;"/><text fill="#000000" font-family="sans-serif" font-size="20" lengthAdjust="spacingAndGlyphs" textLength="107" x="715.1604" y="238.603">Filesystem</text><ellipse cx="902.6092" cy="230.6874" fill="#FEFECE" filter="url(#f13rjlv5y31nln)" rx="20.1092" ry="16.6874" style="stroke: #A80036; stroke-width: 1.5;"/><text fill="#000000" font-family="sans-serif" font-size="20" lengthAdjust="spacingAndGlyphs" textLength="18" x="893.6092" y="238.828">...</text><!--link Containers to STL--><path d="M148.8768,44.3909 C247.9148,66.8794 435.2738,109.4229 505.2398,125.31 " fill="none" id="Containers-STL" style="stroke: #A80036; stroke-width: 1.0;"/><polygon fill="#A80036" points="143.9374,43.2694,151.8281,49.1631,148.8133,44.3767,153.5997,41.3618,143.9374,43.2694" style="stroke: #A80036; stroke-width: 1.0;"/><!--link Iterators to STL--><path d="M307.3558,46.8625 C364.5287,68.3552 461.4228,104.7803 507.1598,121.9739 " fill="none" id="Iterators-STL" style="stroke: #A80036; stroke-width: 1.0;"/><polygon fill="#A80036" points="302.6302,45.086,309.647,51.9972,307.3104,46.8455,312.4621,44.5088,302.6302,45.086" style="stroke: #A80036; stroke-width: 1.0;"/><!--link Algorithms to STL--><path d="M461.5531,53.2271 C478.5987,72.0329 502.1965,98.0674 517.4063,114.8477 " fill="none" id="Algorithms-STL" style="stroke: #A80036; stroke-width: 1.0;"/><polygon fill="#A80036" points="457.8045,49.0914,460.8849,58.4462,461.1623,52.7961,466.8124,53.0736,457.8045,49.0914" style="stroke: #A80036; stroke-width: 1.0;"/><!--link Numerics to STL--><path d="M604.2181,53.2271 C586.9871,72.0329 563.1329,98.0674 547.7578,114.8477 " fill="none" id="Numerics-STL" style="stroke: #A80036; stroke-width: 1.0;"/><polygon fill="#A80036" points="608.0074,49.0914,598.9781,53.0249,604.6296,52.7779,604.8766,58.4294,608.0074,49.0914" style="stroke: #A80036; stroke-width: 1.0;"/><!--link Input/output to STL--><path d="M766.7019,48.6725 C704.7736,70.574 604.6511,105.9831 557.9743,122.4908 " fill="none" id="Input/output-STL" style="stroke: #A80036; stroke-width: 1.0;"/><polygon fill="#A80036" points="771.4627,46.9888,761.644,46.2187,766.7489,48.656,764.3116,53.7609,771.4627,46.9888" style="stroke: #A80036; stroke-width: 1.0;"/><!--link Smart pointers to STL--><path d="M962.3494,45.6147 C846.6417,68.7335 635.3254,110.9552 560.0407,125.9973 " fill="none" id="Smart pointers-STL" style="stroke: #A80036; stroke-width: 1.0;"/><polygon fill="#A80036" points="967.4457,44.5965,957.8364,42.4375,962.5426,45.5762,959.4039,50.2824,967.4457,44.5965" style="stroke: #A80036; stroke-width: 1.0;"/><!--link STL to Chrono--><path d="M506.2317,139.104 C448.7224,155.7514 310.9897,195.6214 237.9102,216.776 " fill="none" id="STL-Chrono" style="stroke: #A80036; stroke-width: 1.0;"/><polygon fill="#A80036" points="232.7622,218.2662,242.5195,219.6059,237.565,216.8759,240.295,211.9214,232.7622,218.2662" style="stroke: #A80036; stroke-width: 1.0;"/><!--link STL to Regex--><path d="M508.9839,142.8566 C473.2367,160.1198 404.9686,193.0883 363.1134,213.3014 " fill="none" id="STL-Regex" style="stroke: #A80036; stroke-width: 1.0;"/><polygon fill="#A80036" points="358.3952,215.5799,368.2391,215.2679,362.8976,213.4055,364.76,208.064,358.3952,215.5799" style="stroke: #A80036; stroke-width: 1.0;"/><!--link STL to Atomic--><path d="M519.9854,149.1992 C508.5295,165.4011 491.5002,189.4855 478.9482,207.2375 " fill="none" id="STL-Atomic" style="stroke: #A80036; stroke-width: 1.0;"/><polygon fill="#A80036" points="475.8596,211.6057,484.3217,206.5665,478.7463,207.5232,477.7896,201.9478,475.8596,211.6057" style="stroke: #A80036; stroke-width: 1.0;"/><!--link STL to Thread--><path d="M545.0146,149.1992 C556.4705,165.4011 573.4998,189.4855 586.0518,207.2375 " fill="none" id="STL-Thread" style="stroke: #A80036; stroke-width: 1.0;"/><polygon fill="#A80036" points="589.1404,211.6057,587.2104,201.9478,586.2537,207.5232,580.6783,206.5665,589.1404,211.6057" style="stroke: #A80036; stroke-width: 1.0;"/><!--link STL to Filesystem--><path d="M556.8673,141.7219 C596.1137,158.1854 673.9276,190.8277 723.4769,211.6132 " fill="none" id="STL-Filesystem" style="stroke: #A80036; stroke-width: 1.0;"/><polygon fill="#A80036" points="728.1816,213.5868,721.4298,206.4165,723.5709,211.6525,718.3349,213.7937,728.1816,213.5868" style="stroke: #A80036; stroke-width: 1.0;"/><!--link STL to ...--><path d="M560.7105,135.9076 C618.8222,145.493 755.5602,170.6681 864.5,211 C870.037,213.0499 875.8059,215.7111 881.1266,218.4051 " fill="none" id="STL-..." style="stroke: #A80036; stroke-width: 1.0;"/><polygon fill="#A80036" points="885.8676,220.8717,879.7296,213.1694,881.432,218.564,876.0374,220.2664,885.8676,220.8717" style="stroke: #A80036; stroke-width: 1.0;"/><!--
@startuml
skinparam defaultFontSize 20

(Containers) <- - (STL)
(Iterators) <- - (STL)
(Algorithms) <- - (STL)
(Numerics) <- - (STL)
(Input/output) <- - (STL)
(Smart pointers) <- - (STL)

(STL) - -> (Chrono)
(STL) - -> (Regex)
(STL) - -> (Atomic)
(STL) - -> (Thread)
(STL) - -> (Filesystem)
(STL) - -> (...)

@enduml

PlantUML version 1.2017.18(Fri Oct 06 19:56:32 MSK 2017)
(GPL source distribution)
Java Runtime: OpenJDK Runtime Environment
JVM: OpenJDK 64-Bit Server VM
Java Version: 1.8.0_172-02
Operating System: Linux
OS Version: 4.15.12
Default Encoding: UTF-8
Language: en
Country: US
--></g></svg>